<mxfile host="app.diagrams.net" agent="Mozilla/5.0 (Windows NT 10.0; Win64; x64) AppleWebKit/537.36 (KHTML, like Gecko) Chrome/133.0.0.0 Safari/537.36" version="26.1.0">
  <diagram name="Page-1" id="bd83a815-5ea8-2e97-e5ec-87c9f400f2fa">
    <mxGraphModel dx="1909" dy="1104" grid="1" gridSize="10" guides="1" tooltips="1" connect="1" arrows="1" fold="1" page="1" pageScale="1.5" pageWidth="1169" pageHeight="826" background="none" math="0" shadow="0">
      <root>
        <mxCell id="0" style=";html=1;" />
        <mxCell id="1" style=";html=1;" parent="0" />
        <mxCell id="O6ogXb1hOBlFaWI-pdaY-1" value="" style="shape=table;startSize=0;container=1;collapsible=0;childLayout=tableLayout;strokeWidth=1;strokeColor=light-dark(#666666, #ededed);swimlaneLine=1;" vertex="1" parent="1">
          <mxGeometry x="920" y="520" width="790" height="382" as="geometry" />
        </mxCell>
        <mxCell id="O6ogXb1hOBlFaWI-pdaY-2" value="" style="shape=tableRow;horizontal=0;startSize=0;swimlaneHead=0;swimlaneBody=0;strokeColor=inherit;top=0;left=0;bottom=0;right=0;collapsible=0;dropTarget=0;fillColor=none;points=[[0,0.5],[1,0.5]];portConstraint=eastwest;" vertex="1" parent="O6ogXb1hOBlFaWI-pdaY-1">
          <mxGeometry width="790" height="42" as="geometry" />
        </mxCell>
        <mxCell id="O6ogXb1hOBlFaWI-pdaY-3" value="Process Step" style="shape=partialRectangle;html=1;whiteSpace=wrap;connectable=0;strokeColor=#666666;overflow=hidden;fillColor=#f5f5f5;top=0;left=0;bottom=0;right=0;pointerEvents=1;fontStyle=1;strokeWidth=2;fontColor=#333333;" vertex="1" parent="O6ogXb1hOBlFaWI-pdaY-2">
          <mxGeometry width="200" height="42" as="geometry">
            <mxRectangle width="200" height="42" as="alternateBounds" />
          </mxGeometry>
        </mxCell>
        <mxCell id="O6ogXb1hOBlFaWI-pdaY-4" value="Total Articles Obtained" style="shape=partialRectangle;html=1;whiteSpace=wrap;connectable=0;strokeColor=#666666;overflow=hidden;fillColor=#f5f5f5;top=0;left=0;bottom=0;right=0;pointerEvents=1;fontStyle=1;strokeWidth=2;fontColor=#333333;" vertex="1" parent="O6ogXb1hOBlFaWI-pdaY-2">
          <mxGeometry x="200" width="195" height="42" as="geometry">
            <mxRectangle width="195" height="42" as="alternateBounds" />
          </mxGeometry>
        </mxCell>
        <mxCell id="O6ogXb1hOBlFaWI-pdaY-5" value="Articles Removed" style="shape=partialRectangle;html=1;whiteSpace=wrap;connectable=0;overflow=hidden;top=0;left=0;bottom=0;right=0;pointerEvents=1;fontStyle=1;strokeWidth=2;fillColor=#f5f5f5;strokeColor=#666666;fontColor=#333333;" vertex="1" parent="O6ogXb1hOBlFaWI-pdaY-2">
          <mxGeometry x="395" width="200" height="42" as="geometry">
            <mxRectangle width="200" height="42" as="alternateBounds" />
          </mxGeometry>
        </mxCell>
        <mxCell id="O6ogXb1hOBlFaWI-pdaY-6" value="Articles Remaining" style="shape=partialRectangle;html=1;whiteSpace=wrap;connectable=0;overflow=hidden;top=0;left=0;bottom=0;right=0;pointerEvents=1;strokeWidth=2;fillColor=#f5f5f5;fontColor=#333333;strokeColor=#666666;fontStyle=1" vertex="1" parent="O6ogXb1hOBlFaWI-pdaY-2">
          <mxGeometry x="595" width="195" height="42" as="geometry">
            <mxRectangle width="195" height="42" as="alternateBounds" />
          </mxGeometry>
        </mxCell>
        <mxCell id="O6ogXb1hOBlFaWI-pdaY-7" value="" style="shape=tableRow;horizontal=0;startSize=0;swimlaneHead=0;swimlaneBody=0;strokeColor=inherit;top=0;left=0;bottom=0;right=0;collapsible=0;dropTarget=0;fillColor=none;points=[[0,0.5],[1,0.5]];portConstraint=eastwest;" vertex="1" parent="O6ogXb1hOBlFaWI-pdaY-1">
          <mxGeometry y="42" width="790" height="42" as="geometry" />
        </mxCell>
        <mxCell id="O6ogXb1hOBlFaWI-pdaY-8" value="Initial Search (IEEE Digital Library)" style="shape=partialRectangle;html=1;whiteSpace=wrap;connectable=0;strokeColor=inherit;overflow=hidden;fillColor=none;top=0;left=0;bottom=0;right=0;pointerEvents=1;" vertex="1" parent="O6ogXb1hOBlFaWI-pdaY-7">
          <mxGeometry width="200" height="42" as="geometry">
            <mxRectangle width="200" height="42" as="alternateBounds" />
          </mxGeometry>
        </mxCell>
        <mxCell id="O6ogXb1hOBlFaWI-pdaY-9" value="23" style="shape=partialRectangle;html=1;whiteSpace=wrap;connectable=0;strokeColor=inherit;overflow=hidden;fillColor=none;top=0;left=0;bottom=0;right=0;pointerEvents=1;" vertex="1" parent="O6ogXb1hOBlFaWI-pdaY-7">
          <mxGeometry x="200" width="195" height="42" as="geometry">
            <mxRectangle width="195" height="42" as="alternateBounds" />
          </mxGeometry>
        </mxCell>
        <mxCell id="O6ogXb1hOBlFaWI-pdaY-10" value="-" style="shape=partialRectangle;html=1;whiteSpace=wrap;connectable=0;strokeColor=inherit;overflow=hidden;fillColor=none;top=0;left=0;bottom=0;right=0;pointerEvents=1;" vertex="1" parent="O6ogXb1hOBlFaWI-pdaY-7">
          <mxGeometry x="395" width="200" height="42" as="geometry">
            <mxRectangle width="200" height="42" as="alternateBounds" />
          </mxGeometry>
        </mxCell>
        <mxCell id="O6ogXb1hOBlFaWI-pdaY-11" value="23" style="shape=partialRectangle;html=1;whiteSpace=wrap;connectable=0;strokeColor=inherit;overflow=hidden;fillColor=none;top=0;left=0;bottom=0;right=0;pointerEvents=1;" vertex="1" parent="O6ogXb1hOBlFaWI-pdaY-7">
          <mxGeometry x="595" width="195" height="42" as="geometry">
            <mxRectangle width="195" height="42" as="alternateBounds" />
          </mxGeometry>
        </mxCell>
        <mxCell id="O6ogXb1hOBlFaWI-pdaY-12" value="" style="shape=tableRow;horizontal=0;startSize=0;swimlaneHead=0;swimlaneBody=0;strokeColor=inherit;top=0;left=0;bottom=0;right=0;collapsible=0;dropTarget=0;fillColor=none;points=[[0,0.5],[1,0.5]];portConstraint=eastwest;" vertex="1" parent="O6ogXb1hOBlFaWI-pdaY-1">
          <mxGeometry y="84" width="790" height="46" as="geometry" />
        </mxCell>
        <mxCell id="O6ogXb1hOBlFaWI-pdaY-13" value="Initial Search (Scopus)" style="shape=partialRectangle;html=1;whiteSpace=wrap;connectable=0;strokeColor=inherit;overflow=hidden;fillColor=none;top=0;left=0;bottom=0;right=0;pointerEvents=1;" vertex="1" parent="O6ogXb1hOBlFaWI-pdaY-12">
          <mxGeometry width="200" height="46" as="geometry">
            <mxRectangle width="200" height="46" as="alternateBounds" />
          </mxGeometry>
        </mxCell>
        <mxCell id="O6ogXb1hOBlFaWI-pdaY-14" value="147" style="shape=partialRectangle;html=1;whiteSpace=wrap;connectable=0;strokeColor=inherit;overflow=hidden;fillColor=none;top=0;left=0;bottom=0;right=0;pointerEvents=1;" vertex="1" parent="O6ogXb1hOBlFaWI-pdaY-12">
          <mxGeometry x="200" width="195" height="46" as="geometry">
            <mxRectangle width="195" height="46" as="alternateBounds" />
          </mxGeometry>
        </mxCell>
        <mxCell id="O6ogXb1hOBlFaWI-pdaY-15" value="-" style="shape=partialRectangle;html=1;whiteSpace=wrap;connectable=0;strokeColor=inherit;overflow=hidden;fillColor=none;top=0;left=0;bottom=0;right=0;pointerEvents=1;" vertex="1" parent="O6ogXb1hOBlFaWI-pdaY-12">
          <mxGeometry x="395" width="200" height="46" as="geometry">
            <mxRectangle width="200" height="46" as="alternateBounds" />
          </mxGeometry>
        </mxCell>
        <mxCell id="O6ogXb1hOBlFaWI-pdaY-16" value="147" style="shape=partialRectangle;html=1;whiteSpace=wrap;connectable=0;strokeColor=inherit;overflow=hidden;fillColor=none;top=0;left=0;bottom=0;right=0;pointerEvents=1;" vertex="1" parent="O6ogXb1hOBlFaWI-pdaY-12">
          <mxGeometry x="595" width="195" height="46" as="geometry">
            <mxRectangle width="195" height="46" as="alternateBounds" />
          </mxGeometry>
        </mxCell>
        <mxCell id="O6ogXb1hOBlFaWI-pdaY-17" value="" style="shape=tableRow;horizontal=0;startSize=0;swimlaneHead=0;swimlaneBody=0;strokeColor=inherit;top=0;left=0;bottom=0;right=0;collapsible=0;dropTarget=0;fillColor=none;points=[[0,0.5],[1,0.5]];portConstraint=eastwest;" vertex="1" parent="O6ogXb1hOBlFaWI-pdaY-1">
          <mxGeometry y="130" width="790" height="42" as="geometry" />
        </mxCell>
        <mxCell id="O6ogXb1hOBlFaWI-pdaY-18" value="Total Initial" style="shape=partialRectangle;html=1;whiteSpace=wrap;connectable=0;strokeColor=inherit;overflow=hidden;fillColor=none;top=0;left=0;bottom=0;right=0;pointerEvents=1;fontStyle=1" vertex="1" parent="O6ogXb1hOBlFaWI-pdaY-17">
          <mxGeometry width="200" height="42" as="geometry">
            <mxRectangle width="200" height="42" as="alternateBounds" />
          </mxGeometry>
        </mxCell>
        <mxCell id="O6ogXb1hOBlFaWI-pdaY-19" value="-" style="shape=partialRectangle;html=1;whiteSpace=wrap;connectable=0;strokeColor=inherit;overflow=hidden;fillColor=none;top=0;left=0;bottom=0;right=0;pointerEvents=1;" vertex="1" parent="O6ogXb1hOBlFaWI-pdaY-17">
          <mxGeometry x="200" width="195" height="42" as="geometry">
            <mxRectangle width="195" height="42" as="alternateBounds" />
          </mxGeometry>
        </mxCell>
        <mxCell id="O6ogXb1hOBlFaWI-pdaY-20" value="-" style="shape=partialRectangle;html=1;whiteSpace=wrap;connectable=0;strokeColor=inherit;overflow=hidden;fillColor=none;top=0;left=0;bottom=0;right=0;pointerEvents=1;" vertex="1" parent="O6ogXb1hOBlFaWI-pdaY-17">
          <mxGeometry x="395" width="200" height="42" as="geometry">
            <mxRectangle width="200" height="42" as="alternateBounds" />
          </mxGeometry>
        </mxCell>
        <mxCell id="O6ogXb1hOBlFaWI-pdaY-21" value="170" style="shape=partialRectangle;html=1;whiteSpace=wrap;connectable=0;strokeColor=inherit;overflow=hidden;fillColor=none;top=0;left=0;bottom=0;right=0;pointerEvents=1;fontStyle=1" vertex="1" parent="O6ogXb1hOBlFaWI-pdaY-17">
          <mxGeometry x="595" width="195" height="42" as="geometry">
            <mxRectangle width="195" height="42" as="alternateBounds" />
          </mxGeometry>
        </mxCell>
        <mxCell id="O6ogXb1hOBlFaWI-pdaY-22" value="" style="shape=tableRow;horizontal=0;startSize=0;swimlaneHead=0;swimlaneBody=0;strokeColor=inherit;top=0;left=0;bottom=0;right=0;collapsible=0;dropTarget=0;fillColor=none;points=[[0,0.5],[1,0.5]];portConstraint=eastwest;" vertex="1" parent="O6ogXb1hOBlFaWI-pdaY-1">
          <mxGeometry y="172" width="790" height="42" as="geometry" />
        </mxCell>
        <mxCell id="O6ogXb1hOBlFaWI-pdaY-23" value="Removal of Duplicates" style="shape=partialRectangle;html=1;whiteSpace=wrap;connectable=0;strokeColor=inherit;overflow=hidden;fillColor=none;top=0;left=0;bottom=0;right=0;pointerEvents=1;" vertex="1" parent="O6ogXb1hOBlFaWI-pdaY-22">
          <mxGeometry width="200" height="42" as="geometry">
            <mxRectangle width="200" height="42" as="alternateBounds" />
          </mxGeometry>
        </mxCell>
        <mxCell id="O6ogXb1hOBlFaWI-pdaY-24" value="-" style="shape=partialRectangle;html=1;whiteSpace=wrap;connectable=0;strokeColor=inherit;overflow=hidden;fillColor=none;top=0;left=0;bottom=0;right=0;pointerEvents=1;" vertex="1" parent="O6ogXb1hOBlFaWI-pdaY-22">
          <mxGeometry x="200" width="195" height="42" as="geometry">
            <mxRectangle width="195" height="42" as="alternateBounds" />
          </mxGeometry>
        </mxCell>
        <mxCell id="O6ogXb1hOBlFaWI-pdaY-25" value="7" style="shape=partialRectangle;html=1;whiteSpace=wrap;connectable=0;strokeColor=inherit;overflow=hidden;fillColor=none;top=0;left=0;bottom=0;right=0;pointerEvents=1;" vertex="1" parent="O6ogXb1hOBlFaWI-pdaY-22">
          <mxGeometry x="395" width="200" height="42" as="geometry">
            <mxRectangle width="200" height="42" as="alternateBounds" />
          </mxGeometry>
        </mxCell>
        <mxCell id="O6ogXb1hOBlFaWI-pdaY-26" value="163" style="shape=partialRectangle;html=1;whiteSpace=wrap;connectable=0;strokeColor=inherit;overflow=hidden;fillColor=none;top=0;left=0;bottom=0;right=0;pointerEvents=1;" vertex="1" parent="O6ogXb1hOBlFaWI-pdaY-22">
          <mxGeometry x="595" width="195" height="42" as="geometry">
            <mxRectangle width="195" height="42" as="alternateBounds" />
          </mxGeometry>
        </mxCell>
        <mxCell id="O6ogXb1hOBlFaWI-pdaY-28" style="shape=tableRow;horizontal=0;startSize=0;swimlaneHead=0;swimlaneBody=0;strokeColor=inherit;top=0;left=0;bottom=0;right=0;collapsible=0;dropTarget=0;fillColor=none;points=[[0,0.5],[1,0.5]];portConstraint=eastwest;" vertex="1" parent="O6ogXb1hOBlFaWI-pdaY-1">
          <mxGeometry y="214" width="790" height="42" as="geometry" />
        </mxCell>
        <mxCell id="O6ogXb1hOBlFaWI-pdaY-29" value="Application of Inclusion and Exclusion Criteria" style="shape=partialRectangle;html=1;whiteSpace=wrap;connectable=0;strokeColor=inherit;overflow=hidden;fillColor=none;top=0;left=0;bottom=0;right=0;pointerEvents=1;" vertex="1" parent="O6ogXb1hOBlFaWI-pdaY-28">
          <mxGeometry width="200" height="42" as="geometry">
            <mxRectangle width="200" height="42" as="alternateBounds" />
          </mxGeometry>
        </mxCell>
        <mxCell id="O6ogXb1hOBlFaWI-pdaY-30" value="-" style="shape=partialRectangle;html=1;whiteSpace=wrap;connectable=0;strokeColor=inherit;overflow=hidden;fillColor=none;top=0;left=0;bottom=0;right=0;pointerEvents=1;" vertex="1" parent="O6ogXb1hOBlFaWI-pdaY-28">
          <mxGeometry x="200" width="195" height="42" as="geometry">
            <mxRectangle width="195" height="42" as="alternateBounds" />
          </mxGeometry>
        </mxCell>
        <mxCell id="O6ogXb1hOBlFaWI-pdaY-31" value="130" style="shape=partialRectangle;html=1;whiteSpace=wrap;connectable=0;strokeColor=inherit;overflow=hidden;fillColor=none;top=0;left=0;bottom=0;right=0;pointerEvents=1;" vertex="1" parent="O6ogXb1hOBlFaWI-pdaY-28">
          <mxGeometry x="395" width="200" height="42" as="geometry">
            <mxRectangle width="200" height="42" as="alternateBounds" />
          </mxGeometry>
        </mxCell>
        <mxCell id="O6ogXb1hOBlFaWI-pdaY-32" value="33" style="shape=partialRectangle;html=1;whiteSpace=wrap;connectable=0;strokeColor=inherit;overflow=hidden;fillColor=none;top=0;left=0;bottom=0;right=0;pointerEvents=1;" vertex="1" parent="O6ogXb1hOBlFaWI-pdaY-28">
          <mxGeometry x="595" width="195" height="42" as="geometry">
            <mxRectangle width="195" height="42" as="alternateBounds" />
          </mxGeometry>
        </mxCell>
        <mxCell id="O6ogXb1hOBlFaWI-pdaY-33" style="shape=tableRow;horizontal=0;startSize=0;swimlaneHead=0;swimlaneBody=0;strokeColor=inherit;top=0;left=0;bottom=0;right=0;collapsible=0;dropTarget=0;fillColor=none;points=[[0,0.5],[1,0.5]];portConstraint=eastwest;" vertex="1" parent="O6ogXb1hOBlFaWI-pdaY-1">
          <mxGeometry y="256" width="790" height="42" as="geometry" />
        </mxCell>
        <mxCell id="O6ogXb1hOBlFaWI-pdaY-34" value="Quality Assessment" style="shape=partialRectangle;html=1;whiteSpace=wrap;connectable=0;strokeColor=inherit;overflow=hidden;fillColor=none;top=0;left=0;bottom=0;right=0;pointerEvents=1;" vertex="1" parent="O6ogXb1hOBlFaWI-pdaY-33">
          <mxGeometry width="200" height="42" as="geometry">
            <mxRectangle width="200" height="42" as="alternateBounds" />
          </mxGeometry>
        </mxCell>
        <mxCell id="O6ogXb1hOBlFaWI-pdaY-35" value="-" style="shape=partialRectangle;html=1;whiteSpace=wrap;connectable=0;strokeColor=inherit;overflow=hidden;fillColor=none;top=0;left=0;bottom=0;right=0;pointerEvents=1;" vertex="1" parent="O6ogXb1hOBlFaWI-pdaY-33">
          <mxGeometry x="200" width="195" height="42" as="geometry">
            <mxRectangle width="195" height="42" as="alternateBounds" />
          </mxGeometry>
        </mxCell>
        <mxCell id="O6ogXb1hOBlFaWI-pdaY-36" value="18" style="shape=partialRectangle;html=1;whiteSpace=wrap;connectable=0;strokeColor=inherit;overflow=hidden;fillColor=none;top=0;left=0;bottom=0;right=0;pointerEvents=1;" vertex="1" parent="O6ogXb1hOBlFaWI-pdaY-33">
          <mxGeometry x="395" width="200" height="42" as="geometry">
            <mxRectangle width="200" height="42" as="alternateBounds" />
          </mxGeometry>
        </mxCell>
        <mxCell id="O6ogXb1hOBlFaWI-pdaY-37" value="15" style="shape=partialRectangle;html=1;whiteSpace=wrap;connectable=0;strokeColor=inherit;overflow=hidden;fillColor=none;top=0;left=0;bottom=0;right=0;pointerEvents=1;" vertex="1" parent="O6ogXb1hOBlFaWI-pdaY-33">
          <mxGeometry x="595" width="195" height="42" as="geometry">
            <mxRectangle width="195" height="42" as="alternateBounds" />
          </mxGeometry>
        </mxCell>
        <mxCell id="O6ogXb1hOBlFaWI-pdaY-38" style="shape=tableRow;horizontal=0;startSize=0;swimlaneHead=0;swimlaneBody=0;strokeColor=inherit;top=0;left=0;bottom=0;right=0;collapsible=0;dropTarget=0;fillColor=none;points=[[0,0.5],[1,0.5]];portConstraint=eastwest;" vertex="1" parent="O6ogXb1hOBlFaWI-pdaY-1">
          <mxGeometry y="298" width="790" height="42" as="geometry" />
        </mxCell>
        <mxCell id="O6ogXb1hOBlFaWI-pdaY-39" value="Snowballing" style="shape=partialRectangle;html=1;whiteSpace=wrap;connectable=0;strokeColor=inherit;overflow=hidden;fillColor=none;top=0;left=0;bottom=0;right=0;pointerEvents=1;" vertex="1" parent="O6ogXb1hOBlFaWI-pdaY-38">
          <mxGeometry width="200" height="42" as="geometry">
            <mxRectangle width="200" height="42" as="alternateBounds" />
          </mxGeometry>
        </mxCell>
        <mxCell id="O6ogXb1hOBlFaWI-pdaY-40" value="15" style="shape=partialRectangle;html=1;whiteSpace=wrap;connectable=0;strokeColor=inherit;overflow=hidden;fillColor=none;top=0;left=0;bottom=0;right=0;pointerEvents=1;" vertex="1" parent="O6ogXb1hOBlFaWI-pdaY-38">
          <mxGeometry x="200" width="195" height="42" as="geometry">
            <mxRectangle width="195" height="42" as="alternateBounds" />
          </mxGeometry>
        </mxCell>
        <mxCell id="O6ogXb1hOBlFaWI-pdaY-41" value="12" style="shape=partialRectangle;html=1;whiteSpace=wrap;connectable=0;strokeColor=inherit;overflow=hidden;fillColor=none;top=0;left=0;bottom=0;right=0;pointerEvents=1;" vertex="1" parent="O6ogXb1hOBlFaWI-pdaY-38">
          <mxGeometry x="395" width="200" height="42" as="geometry">
            <mxRectangle width="200" height="42" as="alternateBounds" />
          </mxGeometry>
        </mxCell>
        <mxCell id="O6ogXb1hOBlFaWI-pdaY-42" value="3" style="shape=partialRectangle;html=1;whiteSpace=wrap;connectable=0;strokeColor=inherit;overflow=hidden;fillColor=none;top=0;left=0;bottom=0;right=0;pointerEvents=1;" vertex="1" parent="O6ogXb1hOBlFaWI-pdaY-38">
          <mxGeometry x="595" width="195" height="42" as="geometry">
            <mxRectangle width="195" height="42" as="alternateBounds" />
          </mxGeometry>
        </mxCell>
        <mxCell id="O6ogXb1hOBlFaWI-pdaY-43" style="shape=tableRow;horizontal=0;startSize=0;swimlaneHead=0;swimlaneBody=0;strokeColor=inherit;top=0;left=0;bottom=0;right=0;collapsible=0;dropTarget=0;fillColor=none;points=[[0,0.5],[1,0.5]];portConstraint=eastwest;" vertex="1" parent="O6ogXb1hOBlFaWI-pdaY-1">
          <mxGeometry y="340" width="790" height="42" as="geometry" />
        </mxCell>
        <mxCell id="O6ogXb1hOBlFaWI-pdaY-44" value="&lt;b&gt;Total Final of Selected Articles&lt;/b&gt;" style="shape=partialRectangle;html=1;whiteSpace=wrap;connectable=0;strokeColor=inherit;overflow=hidden;fillColor=none;top=0;left=0;bottom=0;right=0;pointerEvents=1;" vertex="1" parent="O6ogXb1hOBlFaWI-pdaY-43">
          <mxGeometry width="200" height="42" as="geometry">
            <mxRectangle width="200" height="42" as="alternateBounds" />
          </mxGeometry>
        </mxCell>
        <mxCell id="O6ogXb1hOBlFaWI-pdaY-45" value="-" style="shape=partialRectangle;html=1;whiteSpace=wrap;connectable=0;strokeColor=inherit;overflow=hidden;fillColor=none;top=0;left=0;bottom=0;right=0;pointerEvents=1;" vertex="1" parent="O6ogXb1hOBlFaWI-pdaY-43">
          <mxGeometry x="200" width="195" height="42" as="geometry">
            <mxRectangle width="195" height="42" as="alternateBounds" />
          </mxGeometry>
        </mxCell>
        <mxCell id="O6ogXb1hOBlFaWI-pdaY-46" value="-" style="shape=partialRectangle;html=1;whiteSpace=wrap;connectable=0;strokeColor=inherit;overflow=hidden;fillColor=none;top=0;left=0;bottom=0;right=0;pointerEvents=1;" vertex="1" parent="O6ogXb1hOBlFaWI-pdaY-43">
          <mxGeometry x="395" width="200" height="42" as="geometry">
            <mxRectangle width="200" height="42" as="alternateBounds" />
          </mxGeometry>
        </mxCell>
        <mxCell id="O6ogXb1hOBlFaWI-pdaY-47" value="&lt;b&gt;18&lt;/b&gt;" style="shape=partialRectangle;html=1;whiteSpace=wrap;connectable=0;strokeColor=inherit;overflow=hidden;fillColor=none;top=0;left=0;bottom=0;right=0;pointerEvents=1;" vertex="1" parent="O6ogXb1hOBlFaWI-pdaY-43">
          <mxGeometry x="595" width="195" height="42" as="geometry">
            <mxRectangle width="195" height="42" as="alternateBounds" />
          </mxGeometry>
        </mxCell>
      </root>
    </mxGraphModel>
  </diagram>
</mxfile>
